<svg class="diagram-root" style="background: #f5f6f6" xmlns="http://www.w3.org/2000/svg" xmlns:xlink="http://www.w3.org/1999/xlink"><style>.diagram-root { font-family: "Helvetica Neue", sans-serif; font-size: 12px; } .t { overflow: visible; } .t-bg { y: 40; fill: #fff;   } .th { fill: #005aa0;   } .tht { fill: #fff; font-size: 14px;  } .tf { fill: #323c46; overflow: visible; } .tf.pk { fill: #005aa0; font-weight: bold; } .tf.fk { font-weight: bold; } .ty { fill: #adb1b5; font-weight: normal; text-anchor: end; } .r { fill: transparent; stroke: #c3c3c3; stroke-width: 1; } .l { stroke: 1; } .i { fill: #c2c7ce; stroke: #c2c7ce; } .i.ix { fill: #afb3b6; stroke: #000; } .fa { fill: transparent; overflow: visible; } .fa .bg.hover { fill: #f7f7f7; } .c { cy: 12; r: 4; stroke: #d2d2dc; fill: #d2d2dc; } .hr { fill: transparent; stroke: #323c46; stroke-opacity: 0.035; stroke-width: 13; } .dc { stroke: #fa5a3c; fill: #fa5a3c; } .x { stroke: white; stroke-width: 1; } .hl .th { fill: #1b9bff; } .hl .tht {  } .fhl .bg { fill: #e7f4ff; } .fhls .bg {  } .r.hl { stroke: #1b9bff; } .dim { opacity: 0.25; }</style><g class="drawing-wrapper" transform="translate(-15.282857142857146, 80.85857142857022) scale(1,1)"><g class="rs"><path d="M 492.71285714285636 133.8528571428561 m -1, 0 a 1,1 0 1,0 2,0 a 1,1 0 1,0 -2,0 M 492.71285714285636 133.8528571428561 m -0.5, 0 a 0.5,0.5 0 1,0 1,0 a 0.5,0.5 0 1,0 -1,0  M492.71285714285636 133.8528571428561 L492.71285714285636 133.8528571428561 480.71285714285636 133.8528571428561 M 492.71285714285636 139.8528571428561 m -1, 0 a 1,1 0 1,0 2,0 a 1,1 0 1,0 -2,0 M 492.71285714285636 139.8528571428561 m -0.5, 0 a 0.5,0.5 0 1,0 1,0 a 0.5,0.5 0 1,0 -1,0  M492.71285714285636 139.8528571428561 L492.71285714285636 139.8528571428561 485.71285714285636 133.8528571428561 492.71285714285636 127.8528571428561 M 492.71285714285636 127.8528571428561 m -1, 0 a 1,1 0 1,0 2,0 a 1,1 0 1,0 -2,0 M 492.71285714285636 127.8528571428561 m -0.5, 0 a 0.5,0.5 0 1,0 1,0 a 0.5,0.5 0 1,0 -1,0  M480.71285714285636 133.8528571428561 Q 414.98 133.8528571428561, 349.24 144.57 T 217.77 155.29000000000002 M 205.77 155.29000000000002 m -1, 0 a 1,1 0 1,0 2,0 a 1,1 0 1,0 -2,0 M 205.77 155.29000000000002 m -0.5, 0 a 0.5,0.5 0 1,0 1,0 a 0.5,0.5 0 1,0 -1,0  M205.77 155.29000000000002 L205.77 155.29000000000002 217.77 155.29000000000002 M211.77 161.29000000000002 L211.77 161.29000000000002 211.77 149.29000000000002" id="h1139284389" class="r"></path><path d="M 492.71285714285636 158.8528571428561 m -1, 0 a 1,1 0 1,0 2,0 a 1,1 0 1,0 -2,0 M 492.71285714285636 158.8528571428561 m -0.5, 0 a 0.5,0.5 0 1,0 1,0 a 0.5,0.5 0 1,0 -1,0  M492.71285714285636 158.8528571428561 L492.71285714285636 158.8528571428561 480.71285714285636 158.8528571428561 M 492.71285714285636 164.8528571428561 m -1, 0 a 1,1 0 1,0 2,0 a 1,1 0 1,0 -2,0 M 492.71285714285636 164.8528571428561 m -0.5, 0 a 0.5,0.5 0 1,0 1,0 a 0.5,0.5 0 1,0 -1,0  M492.71285714285636 164.8528571428561 L492.71285714285636 164.8528571428561 485.71285714285636 158.8528571428561 492.71285714285636 152.8528571428561 M 492.71285714285636 152.8528571428561 m -1, 0 a 1,1 0 1,0 2,0 a 1,1 0 1,0 -2,0 M 492.71285714285636 152.8528571428561 m -0.5, 0 a 0.5,0.5 0 1,0 1,0 a 0.5,0.5 0 1,0 -1,0  M480.71285714285636 158.8528571428561 Q 414.97 158.8528571428561, 349.22 88.64 T 217.73 18.42857142857155 M 205.73 18.42857142857155 m -1, 0 a 1,1 0 1,0 2,0 a 1,1 0 1,0 -2,0 M 205.73 18.42857142857155 m -0.5, 0 a 0.5,0.5 0 1,0 1,0 a 0.5,0.5 0 1,0 -1,0  M205.73 18.42857142857155 L205.73 18.42857142857155 217.73 18.42857142857155 M211.73 24.42857142857155 L211.73 24.42857142857155 211.73 12.428571428571551" id="h1607168654" class="r"></path><path d="M 492.1400000000019 6.141428571429785 m -1, 0 a 1,1 0 1,0 2,0 a 1,1 0 1,0 -2,0 M 492.1400000000019 6.141428571429785 m -0.5, 0 a 0.5,0.5 0 1,0 1,0 a 0.5,0.5 0 1,0 -1,0  M492.1400000000019 6.141428571429785 L492.1400000000019 6.141428571429785 480.1400000000019 6.141428571429785 M 492.1400000000019 12.141428571429785 m -1, 0 a 1,1 0 1,0 2,0 a 1,1 0 1,0 -2,0 M 492.1400000000019 12.141428571429785 m -0.5, 0 a 0.5,0.5 0 1,0 1,0 a 0.5,0.5 0 1,0 -1,0  M492.1400000000019 12.141428571429785 L492.1400000000019 12.141428571429785 485.1400000000019 6.141428571429785 492.1400000000019 0.1414285714297847 M 492.1400000000019 0.1414285714297847 m -1, 0 a 1,1 0 1,0 2,0 a 1,1 0 1,0 -2,0 M 492.1400000000019 0.1414285714297847 m -0.5, 0 a 0.5,0.5 0 1,0 1,0 a 0.5,0.5 0 1,0 -1,0  M480.1400000000019 6.141428571429785 Q 414.54 6.141428571429785, 348.94 12.29 T 217.73 18.42857142857155 M 205.73 18.42857142857155 m -1, 0 a 1,1 0 1,0 2,0 a 1,1 0 1,0 -2,0 M 205.73 18.42857142857155 m -0.5, 0 a 0.5,0.5 0 1,0 1,0 a 0.5,0.5 0 1,0 -1,0  M205.73 18.42857142857155 L205.73 18.42857142857155 217.73 18.42857142857155 M211.73 24.42857142857155 L211.73 24.42857142857155 211.73 12.428571428571551" id="h1397587031" class="r"></path><path d="M 492.1400000000019 31.141428571429785 m -1, 0 a 1,1 0 1,0 2,0 a 1,1 0 1,0 -2,0 M 492.1400000000019 31.141428571429785 m -0.5, 0 a 0.5,0.5 0 1,0 1,0 a 0.5,0.5 0 1,0 -1,0  M492.1400000000019 31.141428571429785 L492.1400000000019 31.141428571429785 480.1400000000019 31.141428571429785 M 492.1400000000019 37.141428571429785 m -1, 0 a 1,1 0 1,0 2,0 a 1,1 0 1,0 -2,0 M 492.1400000000019 37.141428571429785 m -0.5, 0 a 0.5,0.5 0 1,0 1,0 a 0.5,0.5 0 1,0 -1,0  M492.1400000000019 37.141428571429785 L492.1400000000019 37.141428571429785 485.1400000000019 31.141428571429785 492.1400000000019 25.141428571429785 M 492.1400000000019 25.141428571429785 m -1, 0 a 1,1 0 1,0 2,0 a 1,1 0 1,0 -2,0 M 492.1400000000019 25.141428571429785 m -0.5, 0 a 0.5,0.5 0 1,0 1,0 a 0.5,0.5 0 1,0 -1,0  M480.1400000000019 31.141428571429785 Q 414.55 31.141428571429785, 348.96 93.22 T 217.77 155.29000000000002 M 205.77 155.29000000000002 m -1, 0 a 1,1 0 1,0 2,0 a 1,1 0 1,0 -2,0 M 205.77 155.29000000000002 m -0.5, 0 a 0.5,0.5 0 1,0 1,0 a 0.5,0.5 0 1,0 -1,0  M205.77 155.29000000000002 L205.77 155.29000000000002 217.77 155.29000000000002 M211.77 161.29000000000002 L211.77 161.29000000000002 211.77 149.29000000000002" id="h2286254435" class="r"></path><path d="M 492.8571428571425 257.2771428571429 m -1, 0 a 1,1 0 1,0 2,0 a 1,1 0 1,0 -2,0 M 492.8571428571425 257.2771428571429 m -0.5, 0 a 0.5,0.5 0 1,0 1,0 a 0.5,0.5 0 1,0 -1,0  M492.8571428571425 257.2771428571429 L492.8571428571425 257.2771428571429 480.8571428571425 257.2771428571429 M 492.8571428571425 263.2771428571429 m -1, 0 a 1,1 0 1,0 2,0 a 1,1 0 1,0 -2,0 M 492.8571428571425 263.2771428571429 m -0.5, 0 a 0.5,0.5 0 1,0 1,0 a 0.5,0.5 0 1,0 -1,0  M492.8571428571425 263.2771428571429 L492.8571428571425 263.2771428571429 485.8571428571425 257.2771428571429 492.8571428571425 251.2771428571429 M 492.8571428571425 251.2771428571429 m -1, 0 a 1,1 0 1,0 2,0 a 1,1 0 1,0 -2,0 M 492.8571428571425 251.2771428571429 m -0.5, 0 a 0.5,0.5 0 1,0 1,0 a 0.5,0.5 0 1,0 -1,0  M480.8571428571425 257.2771428571429 Q 415.08 257.2771428571429, 349.31 206.28 T 217.77 155.29000000000002 M 205.77 155.29000000000002 m -1, 0 a 1,1 0 1,0 2,0 a 1,1 0 1,0 -2,0 M 205.77 155.29000000000002 m -0.5, 0 a 0.5,0.5 0 1,0 1,0 a 0.5,0.5 0 1,0 -1,0  M205.77 155.29000000000002 L205.77 155.29000000000002 217.77 155.29000000000002 M211.77 161.29000000000002 L211.77 161.29000000000002 211.77 149.29000000000002" id="h3177548053" class="r"></path><path d="M 486.85857142857043 379.8557142857143 m -1, 0 a 1,1 0 1,0 2,0 a 1,1 0 1,0 -2,0 M 486.85857142857043 379.8557142857143 m -0.5, 0 a 0.5,0.5 0 1,0 1,0 a 0.5,0.5 0 1,0 -1,0  M486.85857142857043 379.8557142857143 L486.85857142857043 379.8557142857143 474.85857142857043 379.8557142857143 M 486.85857142857043 385.8557142857143 m -1, 0 a 1,1 0 1,0 2,0 a 1,1 0 1,0 -2,0 M 486.85857142857043 385.8557142857143 m -0.5, 0 a 0.5,0.5 0 1,0 1,0 a 0.5,0.5 0 1,0 -1,0  M486.85857142857043 385.8557142857143 L486.85857142857043 385.8557142857143 479.85857142857043 379.8557142857143 486.85857142857043 373.8557142857143 M 486.85857142857043 373.8557142857143 m -1, 0 a 1,1 0 1,0 2,0 a 1,1 0 1,0 -2,0 M 486.85857142857043 373.8557142857143 m -0.5, 0 a 0.5,0.5 0 1,0 1,0 a 0.5,0.5 0 1,0 -1,0  M474.85857142857043 379.8557142857143 Q 410.58 379.8557142857143, 346.31 280.07 T 217.77 180.29000000000002 M 205.77 180.29000000000002 m -1, 0 a 1,1 0 1,0 2,0 a 1,1 0 1,0 -2,0 M 205.77 180.29000000000002 m -0.5, 0 a 0.5,0.5 0 1,0 1,0 a 0.5,0.5 0 1,0 -1,0  M205.77 180.29000000000002 L205.77 180.29000000000002 217.77 180.29000000000002 M211.77 186.29000000000002 L211.77 186.29000000000002 211.77 174.29000000000002" id="h724011168" class="r"></path></g><g class="hrs"></g><g class="ts"><svg width="147.16" height="100" x="492.71285714285636" y="76.8528571428561" id="h1090417462" class="t"><rect height="40" width="147.16" class="th"></rect><text x="13" y="25" class="tht">dept_emp</text><rect height="60" width="147.16" class="t-bg"></rect><text x="13" y="61" class="tf fk">emp_no<tspan x="134.16" class="ty">VARCHAR</tspan></text><text x="13" y="86" class="tf fk">dept_no<tspan x="134.16" class="ty">VARCHAR</tspan></text></svg><svg width="147.16" height="100" x="492.1400000000019" y="-50.858571428570215" id="h1676682957" class="t"><rect height="40" width="147.16" class="th"></rect><text x="13" y="25" class="tht">dept_manager</text><rect height="60" width="147.16" class="t-bg"></rect><text x="13" y="61" class="tf fk">dept_no<tspan x="134.16" class="ty">VARCHAR</tspan></text><text x="13" y="86" class="tf fk">emp_no<tspan x="134.16" class="ty">VARCHAR</tspan></text></svg><svg width="147.15" height="100" x="492.8571428571425" y="200.2771428571429" id="h2472833127" class="t"><rect height="40" width="147.15" class="th"></rect><text x="13" y="25" class="tht">salaries</text><rect height="60" width="147.15" class="t-bg"></rect><text x="13" y="61" class="tf fk">emp_no<tspan x="134.15" class="ty">VARCHAR</tspan></text><text x="13" y="86" class="tf">salary<tspan x="134.15" class="ty">INT</tspan></text></svg><svg width="158.47" height="100" x="486.85857142857043" y="322.8557142857143" id="h311790747" class="t"><rect height="40" width="158.47" class="th"></rect><text x="13" y="25" class="tht">titles</text><rect height="60" width="158.47" class="t-bg"></rect><text x="13" y="61" class="tf pk">title_id<tspan x="145.47" class="ty">VARCHAR</tspan></text><path d="M7,14A2,2 0 0,1 5,12A2,2 0 0,1 7,10A2,2 0 0,1 9,12A2,2 0 0,1 7,14M12.65,10C11.83,7.67 9.61,6 7, 6A6, 6 0 0, 0 1, 12A6, 6 0 0, 0 7, 18C9.61, 18 11.83, 16.33 12.65, 14H17V18H21V14H23V10H12.65Z" class="i pk" transform="translate(67.68484375, 48) scale(0.65)"></path><text x="13" y="86" class="tf">title<tspan x="145.47" class="ty">VARCHAR</tspan></text></svg><svg width="167.16" height="100" x="38.57142857142858" y="-38.57142857142845" id="h475896179" class="t"><rect height="40" width="167.16" class="th"></rect><text x="13" y="25" class="tht">departments</text><rect height="60" width="167.16" class="t-bg"></rect><text x="13" y="61" class="tf pk">dept_no<tspan x="154.16" class="ty">VARCHAR</tspan></text><path d="M7,14A2,2 0 0,1 5,12A2,2 0 0,1 7,10A2,2 0 0,1 9,12A2,2 0 0,1 7,14M12.65,10C11.83,7.67 9.61,6 7, 6A6, 6 0 0, 0 1, 12A6, 6 0 0, 0 7, 18C9.61, 18 11.83, 16.33 12.65, 14H17V18H21V14H23V10H12.65Z" class="i pk" transform="translate(76.37484375, 48) scale(0.65)"></path><text x="13" y="86" class="tf">dept_name<tspan x="154.16" class="ty">VARCHAR</tspan></text></svg><svg width="168.49" height="225" x="37.28285714285715" y="98.29" id="h1639608377" class="t"><rect height="40" width="168.49" class="th"></rect><text x="13" y="25" class="tht">employees</text><rect height="185" width="168.49" class="t-bg"></rect><text x="13" y="61" class="tf pk">emp_no<tspan x="155.49" class="ty">INT</tspan></text><path d="M7,14A2,2 0 0,1 5,12A2,2 0 0,1 7,10A2,2 0 0,1 9,12A2,2 0 0,1 7,14M12.65,10C11.83,7.67 9.61,6 7, 6A6, 6 0 0, 0 1, 12A6, 6 0 0, 0 7, 18C9.61, 18 11.83, 16.33 12.65, 14H17V18H21V14H23V10H12.65Z" class="i pk" transform="translate(116.15992187500001, 48) scale(0.65)"></path><text x="13" y="86" class="tf fk">emp_title_id<tspan x="155.49" class="ty">VARCHAR</tspan></text><text x="13" y="111" class="tf">birth_date<tspan x="155.49" class="ty">DATE</tspan></text><text x="13" y="136" class="tf">first_name<tspan x="155.49" class="ty">VARCHAR</tspan></text><text x="13" y="161" class="tf">last_name<tspan x="155.49" class="ty">VARCHAR</tspan></text><text x="13" y="186" class="tf">sex<tspan x="155.49" class="ty">VARCHAR</tspan></text><text x="13" y="211" class="tf">hire_date<tspan x="155.49" class="ty">DATE</tspan></text></svg></g></g><text class="qdbd-link" x="10" y="20">www.quickdatabasediagrams.com</text></svg>